# xmcd
#
# Track frame offsets:
#	150
#	16352
#	32232
#	48873
#	64563
#	81476
#	98893
#	115892
#	129527
#	146782
#	160807
#	174511
#	189456
#	204987
#
# Disc length: 2990 seconds
#
# Revision: 0
# Processed by: cddbd v1.5.2PL0 Copyright (c) Steve Scherf et al.
# Submitted via: audiograbber 1.83.01
#
DISCID=be0bac0e
DTITLE=01 - Mr Music Country 2013-03
DYEAR=2013
DGENRE=Country
TTITLE0=Darius Rucker - This
TTITLE1=Terri Clark - Wrecking ball
TTITLE2=Trace Adkins - You're gonna miss this
TTITLE3=Little Big Town - Pontoon
TTITLE4=Luke Bryan - Someone else calling you baby
TTITLE5=Cookies N Beans - The only medicine that works is you
TTITLE6=Keith Urban - Days go by
TTITLE7=Tanya Tucker - If your heart ain't busy tonight
TTITLE8=Jerry Kilgore - Cactus in a coffee can
TTITLE9=Suzy Bogguss - Drive south
TTITLE10=Dierks Bentley - Sideways
TTITLE11=Anne Murray - That's the way love goes
TTITLE12=Chris Ledoux - Western skies
TTITLE13=Jennifer Hanson - Beautiful goodbye
EXTD=
EXTT0=
EXTT1=
EXTT2=
EXTT3=
EXTT4=
EXTT5=
EXTT6=
EXTT7=
EXTT8=
EXTT9=
EXTT10=
EXTT11=
EXTT12=
EXTT13=
PLAYORDER=
